<svg height="512pt" viewBox="0 0 512 512" width="512pt" xmlns="http://www.w3.org/2000/svg"><path d="m512 301c0 82.800781-61.300781 150-136 150s-135-67.199219-135-150 60.300781-150 135-150 136 67.199219 136 150zm0 0" fill="#90e36a"/><path d="m512 301c0 82.800781-61.300781 150-136 150v-300c74.699219 0 136 67.199219 136 150zm0 0" fill="#56c225"/><path d="m445 328-54 40.5v128.5h-30v-128.5l-54-40.5 18-24 36 27v-60h30v60l36-27zm0 0" fill="#725d57"/><path d="m445 328-54 40.5v128.5h-15v-226h15v60l36-27zm0 0" fill="#53433f"/><path d="m166 0c-90.902344 0-166 88.597656-166 196 0 107.398438 75.097656 195 166 195s165-87.601562 165-195c0-107.402344-74.097656-196-165-196zm0 0" fill="#90e36a"/><path d="m331 196c0 107.398438-74.097656 195-165 195v-391c90.902344 0 165 88.597656 165 196zm0 0" fill="#56c225"/><path d="m215.5 230.5 21 21-55.5 55.800781v189.699219h-30v-189.699219l-55.5-55.800781 21-21 34.5 34.199219v-47.398438l-55.5-55.800781 21-21 34.5 34.199219v-23.699219h30v23.699219l34.5-34.199219 21 21-55.5 55.800781v47.398438zm0 0" fill="#725d57"/><path d="m215.5 230.5 21 21-55.5 55.800781v189.699219h-15v-346h15v23.699219l34.5-34.199219 21 21-55.5 55.800781v47.398438zm0 0" fill="#53433f"/><path d="m0 482h512v30h-512zm0 0" fill="#90e36a"/><path d="m166 482h346v30h-346zm0 0" fill="#56c225"/></svg>